<svg xmlns="http://www.w3.org/2000/svg" viewBox="0 10.079999923706055 199.3699951171875 41.190006256103516" data-asc="1.0087890625" width="199.3699951171875" height="41.190006256103516"><defs/><g fill="#ffffff"><g transform="translate(0, 0)"><path d="M40.72 10.91L36.16 50.44L23.32 50.44Q21.56 41.33 20.21 29.74Q19.60 34.69 17.36 50.44L4.59 50.44L0 10.91L9.99 10.91L11.04 24.71L12.11 38.01Q12.67 27.69 14.94 10.91L25.63 10.91Q25.85 12.65 26.76 23.95L27.88 38.96Q28.74 24.63 30.74 10.91L40.72 10.91ZM66.41 10.91L66.41 50.44L56.13 50.44L56.13 33.84L53.05 33.84L53.05 50.44L42.77 50.44L42.77 10.91L53.05 10.91L53.05 25.05L56.13 25.05L56.13 10.91L66.41 10.91ZM88.28 10.91L94.17 50.44L83.64 50.44L83.13 43.33L79.44 43.33L78.83 50.44L68.19 50.44L73.41 10.91L88.28 10.91M82.84 36.33Q82.06 29.61 81.27 19.75Q79.71 31.08 79.32 36.33L82.84 36.33ZM113.87 10.91L113.87 18.82L107.76 18.82L107.76 50.44L97.49 50.44L97.49 18.82L91.41 18.82L91.41 10.91L113.87 10.91ZM135.30 10.91L135.30 50.44L125.02 50.44L125.02 10.91L135.30 10.91ZM148.24 10.91L155.93 10.91Q163.38 10.91 166.00 11.60Q168.63 12.28 170.00 13.84Q171.36 15.41 171.70 17.32Q172.05 19.24 172.05 24.85L172.05 38.70Q172.05 44.02 171.55 45.81Q171.04 47.61 169.80 48.62Q168.55 49.63 166.72 50.04Q164.89 50.44 161.21 50.44L148.24 50.44L148.24 10.91M158.52 17.68L158.52 43.68Q160.74 43.68 161.25 42.79Q161.77 41.89 161.77 37.94L161.77 22.58Q161.77 19.90 161.60 19.14Q161.43 18.38 160.82 18.03Q160.21 17.68 158.52 17.68ZM199.37 34.06Q199.37 40.01 199.08 42.49Q198.80 44.97 197.33 47.02Q195.85 49.07 193.33 50.17Q190.82 51.27 187.48 51.27Q184.30 51.27 181.77 50.23Q179.25 49.19 177.71 47.12Q176.17 45.04 175.88 42.60Q175.59 40.16 175.59 34.06L175.59 27.29Q175.59 21.34 175.87 18.86Q176.15 16.38 177.62 14.33Q179.10 12.28 181.62 11.18Q184.13 10.08 187.48 10.08Q190.65 10.08 193.18 11.12Q195.70 12.16 197.24 14.23Q198.78 16.31 199.07 18.75Q199.37 21.19 199.37 27.29L199.37 34.06M189.09 21.07Q189.09 18.31 188.78 17.54Q188.48 16.77 187.52 16.77Q186.72 16.77 186.29 17.40Q185.86 18.02 185.86 21.07L185.86 39.53Q185.86 42.97 186.15 43.77Q186.43 44.58 187.45 44.58Q188.50 44.58 188.79 43.65Q189.09 42.72 189.09 39.23L189.09 21.07Z"/></g></g></svg>